<svg xmlns="http://www.w3.org/2000/svg" viewBox="0 0 550 506.61"><defs><style>.cls-1{fill:#e4a330;}.cls-2{fill:#e1972f;}.cls-3{fill:#c72b2c;}.cls-4{fill:#7c4226;}.cls-5{fill:#a35f30;}.cls-6{fill:#4d713d;}.cls-7{fill:#fff;}.cls-8{fill:#ad262b;}.cls-9{fill:#844d29;}.cls-10{fill:#eec131;}.cls-11{fill:#ebba63;}</style></defs><title>logo</title><g id="Layer_2" data-name="Layer 2"><g id="Object"><path class="cls-1" d="M18.16,408.89H531.84a8.67,8.67,0,0,1,8.67,8.67v40.13a48.92,48.92,0,0,1-48.92,48.92H58.4A48.92,48.92,0,0,1,9.48,457.69V417.56a8.67,8.67,0,0,1,8.67-8.67Z"/><path class="cls-2" d="M540.52,457.69V417.56a8.7,8.7,0,0,0-8.68-8.67H504.59c-62.67,49-173.69,78.16-271.56,97.72H491.6A49.07,49.07,0,0,0,540.52,457.69Z"/><rect class="cls-3" x="23.08" y="296.79" width="503.85" height="38.37" rx="10.55"/><path class="cls-4" d="M448.18,408.89h46.63a31.16,31.16,0,0,0,31.06-31.06V366.22A31.09,31.09,0,0,0,511.36,340C501.69,372,470.48,395.56,448.18,408.89Z"/><path class="cls-5" d="M517.07,298H37.89c-9.26-6.72-14.81-12.26-14.81-19.05V228.47a12.37,12.37,0,0,1,12.33-12.33H514.59a12.37,12.37,0,0,1,12.33,12.33V279C526.92,285.78,521.37,291.32,517.07,298Z"/><path class="cls-6" d="M547.92,243.73l-21.58-42.84H23.66L2.08,243.73c-11.06,22,25,27.12,36.64,20,4.74-2.92,8.3-7.57,12.9-10.64,14.92-10,31.54-4.15,44.23,7.19,0,0,41.68,44.62,80.38,3.51C189.16,250,204.89,242.67,222.34,252c15.8,8.43,27.78,25,44.58,31.2,11.61,4.3,24.39.56,34-7.48,6.46-5.42,9.86-13.79,16.92-18.35,18.28-11.79,40.8-9.68,56,6.42,38.7,41.1,80.38-3.52,80.38-3.52,12.69-11.34,29.31-17.18,44.23-7.19,4.6,3.07,8.16,7.72,12.9,10.64C522.87,270.85,559,265.69,547.92,243.73Z"/><path class="cls-1" d="M13.8,208.34h0C13.8,110.23,126.52,0,269.94,0h0C413.36,0,535.33,110.23,535.33,208.34H13.8Z"/><path class="cls-2" d="M428.61,50.52c-31.13,82.42-102.72,130.6-164,157.82H535C533.83,145.22,481.93,79.55,428.61,50.52Z"/><path class="cls-7" d="M177.09,72.07c-5.21,6.21-11.72,9.32-14.53,7s-.86-9.3,4.35-15.51,11.72-9.32,14.53-7S182.3,65.87,177.09,72.07Z"/><path class="cls-7" d="M365.09,73.56c-7,4-14.19,4.75-16,1.57s2.37-9,9.38-13.09,14.2-4.76,16-1.58S372.11,69.5,365.09,73.56Z"/><ellipse class="cls-7" cx="266.28" cy="70.72" rx="14.67" ry="6.65" transform="translate(141.64 316.43) rotate(-77.98)"/><path class="cls-7" d="M229.08,42.39c5.35,6.08,7.45,13,4.7,15.41s-9.33-.54-14.69-6.63-7.45-13-4.7-15.41S223.73,36.3,229.08,42.39Z"/><path class="cls-7" d="M320.46,44.24c7.53,3,12.54,8.18,11.18,11.59s-8.56,3.76-16.09.76S303,48.41,304.36,45,312.92,41.25,320.46,44.24Z"/><path class="cls-8" d="M115.33,300.22l132,37.53H329.1S249.66,301.65,115.33,300.22Z"/><rect class="cls-9" x="19.32" y="335.16" width="511.36" height="73.73" rx="17.42"/><path class="cls-4" d="M237.67,335.16s126.26,36.75,164.21,65.14l68.7-64.1Z"/><path class="cls-10" d="M399.83,379.74l78.55-81.53L96.07,298S270.1,310.07,399.83,379.74Z"/><path class="cls-11" d="M28.62,193.19s31.59-139.43,188-170.41C216.65,22.78,99.25,88.51,28.62,193.19Z"/></g></g></svg>